<?xml version="1.0" encoding="utf-8"?>
<!-- Generator: Adobe Illustrator 23.0.1, SVG Export Plug-In . SVG Version: 6.00 Build 0)  -->
<svg version="1.1" id="Layer_1" xmlns="http://www.w3.org/2000/svg" xmlns:xlink="http://www.w3.org/1999/xlink" x="0px" y="0px"
	 viewBox="0 0 97.8 96.8" style="enable-background:new 0 0 97.8 96.8;" xml:space="preserve">
<style type="text/css">
	.st0{fill:#004C7A;}
</style>
<path class="st0" d="M49,1.9C23.3,1.9,2.5,22.7,2.5,48.4c0,25.7,20.8,46.5,46.5,46.5s46.5-20.8,46.5-46.5C95.5,22.7,74.7,1.9,49,1.9
	z M74.4,48.3c-1.1,0.5-2.5,0.7-4.2,0.7c-0.6,2.2-1.6,4.2-2.9,6.1c-1.4,1.9-3,3.5-4.9,4.9c-1.9,1.4-4,2.6-6.3,3.6
	c-2.3,1-4.8,1.7-7.4,2.1c-2,0.4-3.9,0.5-5.9,0.5c-1.5,0-3-0.1-4.5-0.3c-3.5-0.5-6.8-1.6-10-3.3c-3.2-1.8-6-4.2-8.4-7.4
	c1.4,1.1,2.9,2,4.7,2.6c1.8,0.6,3.7,0.9,5.6,0.9c1.9,0,3.8-0.3,5.7-1c1.9-0.6,3.6-1.6,5.1-3c-0.1,0-0.3,0-0.4,0c-0.1,0-0.3,0-0.4,0
	c-0.5,0-1-0.1-1.5-0.3c-0.5-0.2-0.9-0.4-1.2-0.7c-0.3-0.3-0.5-0.7-0.5-1c0-0.4,0.2-0.8,0.5-1.1c0.4-0.4,0.9-0.7,1.8-1
	c-0.2,0-0.4,0-0.6,0.1c-0.2,0-0.4,0-0.6,0c-0.3,0-0.5,0-0.8,0c-0.3,0-0.5-0.1-0.7-0.1c-1.2-0.2-2.2-0.6-2.8-1.2
	c-0.7-0.6-1.2-1.2-1.6-1.9c0.5-0.4,1-0.8,1.6-1c0.6-0.2,1.4-0.4,2.4-0.4c-2.2-0.5-3.7-1.1-4.7-2.1c-0.9-0.9-1.5-2-1.7-3.2
	c0.6-0.1,1.3-0.2,1.9-0.3c0.7-0.1,1.2-0.1,1.5-0.1c-1.8-0.9-3.1-2-3.9-3.2c-0.6-1.1-1-2.1-1-3.1c0-0.2,0-0.3,0-0.4
	c1.7,0.6,3.2,1.1,4.6,1.7c1.4,0.5,2.7,1,3.9,1.5c1.2,0.5,2.3,1,3.3,1.5c1,0.5,1.9,0.9,2.8,1.4c0.7,0.3,1.4,0.7,2.1,1.3l2.2,1.9
	c0.5-1.2,1.1-2.5,1.7-3.7c0.6-1.3,1.2-2.5,1.9-3.6c0.7-1.1,1.5-2.2,2.4-3.1c0.9-0.9,1.9-1.7,3-2.3c0,0.5-0.3,1.1-0.9,1.6
	c1.2-1.1,2.7-1.7,4.5-2c-0.1,0.5-0.5,1-1.2,1.3c-0.3,0.2-0.7,0.3-1,0.4c-0.3,0.1-0.6,0.2-0.9,0.3c0.2,0,0.6-0.2,1.1-0.3
	c0.6-0.2,1.1-0.4,1.8-0.5c0.6-0.2,1.2-0.3,1.7-0.4c0.5,0,0.8,0.1,0.9,0.3c0.1,0.3,0.1,0.6-0.2,0.8c-0.3,0.2-0.7,0.4-1.1,0.5
	c-0.4,0.1-0.9,0.2-1.3,0.3c-0.4,0.1-0.7,0.2-0.9,0.2l-1.3,0.5c0.1,0,0.3,0,0.4,0c0.1,0,0.3,0,0.4,0c1.1,0,2.1,0.2,3.2,0.5
	c0.9,0.3,1.8,0.7,2.7,1.3c0.9,0.6,1.6,1.2,2.3,1.9c0.7,0.7,1.3,1.5,1.9,2.4c0.5,0.9,0.9,1.8,1.2,2.7l0.1,0.6c0,0.1,0,0.2,0.1,0.3
	c0,0.1,0,0.2,0.1,0.3c0.5,0.2,1.1,0.3,1.7,0.3c0.7,0,1.3,0,1.9-0.1c0.6-0.1,1.2-0.2,1.8-0.4c0.6-0.2,1-0.3,1.3-0.5
	c-0.4,0.9-1.1,1.7-2.2,2.3c-1.1,0.6-2.4,1-4.1,1.1c0.8,0.3,1.8,0.6,3.1,0.7c0.3,0,0.6,0,0.9,0.1c0.3,0,0.6,0,0.8,0
	c0.6,0,1.2,0,1.8-0.1C76.3,47.3,75.4,47.8,74.4,48.3z"/>
</svg>
