<?xml version="1.0" encoding="utf-8"?>
<!-- Generator: Adobe Illustrator 23.0.1, SVG Export Plug-In . SVG Version: 6.00 Build 0)  -->
<svg version="1.1" id="Layer_1" xmlns="http://www.w3.org/2000/svg" xmlns:xlink="http://www.w3.org/1999/xlink" x="0px" y="0px"
	 viewBox="0 0 97.8 96.8" style="enable-background:new 0 0 97.8 96.8;" xml:space="preserve">
<style type="text/css">
	.st0{fill:#004C7A;}
</style>
<g>
	<path class="st0" d="M44.2,55.6c4.2-2.4,8.2-4.7,12.4-7.1c-4.3-2.4-8.3-4.7-12.4-7C44.2,46.3,44.2,50.8,44.2,55.6z"/>
	<path class="st0" d="M49,1.8C23.3,1.8,2.5,22.6,2.5,48.3C2.5,74,23.3,94.8,49,94.8S95.5,74,95.5,48.3C95.5,22.6,74.7,1.8,49,1.8z
		 M71.9,58.6c-0.5,3.6-2.3,5.3-5.9,5.8c-1.5,0.2-3.1,0.4-4.6,0.4c-9.3,0-18.6,0-27.9-0.3c-5.2-0.1-6.8-1.9-7.5-7.1
		c-0.8-6.3-0.8-12.5,0.1-18.8c0.5-3.8,2.5-5.7,6.3-6c5.6-0.4,11.1-0.6,16.6-0.9c5.5,0.3,11,0.5,16.5,0.9c3.8,0.3,5.7,2.1,6.3,6
		C72.9,45.3,72.9,52,71.9,58.6z"/>
</g>
</svg>
