<?xml version="1.0" encoding="utf-8"?>
<!-- Generator: Adobe Illustrator 23.0.1, SVG Export Plug-In . SVG Version: 6.00 Build 0)  -->
<svg version="1.1" id="Layer_1" xmlns="http://www.w3.org/2000/svg" xmlns:xlink="http://www.w3.org/1999/xlink" x="0px" y="0px"
	 viewBox="0 0 126 126.4" style="enable-background:new 0 0 126 126.4;" xml:space="preserve">
<style type="text/css">
	.st0{fill:#004990;}
</style>
<g>
	<g>
		<path class="st0" d="M15.7,73.2c-0.6-3.1-0.8-6-0.8-9c0-25.8,19.8-47,44.7-48.9L49.4,25.7c-0.9,1-0.9,2.5,0,3.5
			c0.5,0.5,1.1,0.7,1.7,0.7s1.2-0.2,1.7-0.7l14.1-14.3c0.5-0.3,0.8-0.8,1-1.4c0,0,0-0.1,0-0.1c0-0.2,0.1-0.3,0.1-0.4
			c0-0.1,0-0.2-0.1-0.3c0-0.1,0-0.2,0-0.3c0-0.1-0.1-0.2-0.1-0.3c0-0.1,0-0.1-0.1-0.2c-0.2-0.6-0.6-1.1-1.1-1.4L47.3,0.7
			c-1.2-0.6-2.6-0.1-3.2,1.1C43.5,3,44,4.5,45.2,5.1l11.2,5.7C30.3,14.2,10,36.9,10,64.3c0,3.2,0.3,6.4,0.9,9.8c0.2,1.2,1.2,2,2.4,2
			c0.1,0,0.3,0,0.4,0C15.1,75.8,16,74.6,15.7,73.2z M125.7,80.2c-0.7-1.2-2.2-1.5-3.3-0.8l-10.4,6.3c2.9-6.7,4.4-14,4.4-21.4
			c0-22.8-14.2-43.2-35.4-50.9c-1.3-0.4-2.6,0.2-3.1,1.5c-0.4,1.3,0.2,2.7,1.5,3.1c19.3,6.9,32.2,25.5,32.2,46.2
			c0,7.2-1.6,14.2-4.6,20.7l-2.7-13.8c-0.3-1.3-1.6-2.2-2.8-1.9c-1.3,0.3-2.2,1.6-1.9,2.9l4,20.1c0,0.6,0.2,1.1,0.6,1.5c0,0,0,0,0,0
			c0.1,0.2,0.3,0.3,0.5,0.5c0.1,0,0.1,0,0.2,0.1c0.1,0,0.1,0.1,0.2,0.2c0.3,0.1,0.6,0.2,1,0.2c0.4,0,0.9-0.1,1.2-0.3l17.7-10.7
			C126,82.9,126.3,81.4,125.7,80.2z M94.5,101.6c-8.8,7.6-19.9,11.8-31.4,11.8c-16.1,0-30.9-8.1-39.8-21.4l15,4.2
			c1.3,0.4,2.6-0.4,3-1.7s-0.4-2.7-1.7-3l-20.6-5.7c-0.4-0.2-0.9-0.2-1.4-0.1c-0.1,0-0.1,0-0.2,0.1c-0.1,0-0.3,0.1-0.5,0.1
			c-0.1,0-0.1,0.1-0.2,0.2c-0.1,0-0.1,0-0.2,0.1c-0.1,0.1-0.1,0.2-0.2,0.3c-0.1,0.1-0.1,0.2-0.2,0.2c-0.3,0.4-0.5,0.9-0.6,1.4
			l-0.8,20.5c0,1.4,1,2.5,2.3,2.5h0.1c1.3,0,2.4-1,2.4-2.4l0.5-12.7c9.9,14,25.8,22.4,43,22.4c12.6,0,24.9-4.6,34.5-13
			c1-0.9,1.1-2.4,0.3-3.5C97.1,100.8,95.6,100.7,94.5,101.6z"/>
	</g>
</g>
</svg>
