<?xml version="1.0" encoding="utf-8"?>
<!-- Generator: Adobe Illustrator 23.0.1, SVG Export Plug-In . SVG Version: 6.00 Build 0)  -->
<svg version="1.1" id="Layer_1" xmlns="http://www.w3.org/2000/svg" xmlns:xlink="http://www.w3.org/1999/xlink" x="0px" y="0px"
	 viewBox="0 0 267 266.6" style="enable-background:new 0 0 267 266.6;" xml:space="preserve">
<style type="text/css">
	.st0{fill:#FFFFFF;}
</style>
<title>Asset 1</title>
<g>
	<path class="st0" d="M133.1,227.8c-35.7,0-71.3,0-107,0c-9.2,0-13.3-3.8-13.3-12.9c0-54.5,0-109,0-163.5c0-8.4,4.2-12.6,12.6-12.6
		c71.8,0,143.6,0,215.5,0c8.6,0,12.6,4.3,12.6,13.7c0,32.5,0,65,0,97.5c0,21.2,0,42.3,0,63.5c0,10.7-3.7,14.4-14.4,14.4
		C203.8,227.8,168.5,227.8,133.1,227.8z M20.2,76.2c0,2,0,3.7,0,5.3c0,43.7,0,87.3,0,131c0,7.5,0.4,8,7.9,8c70.2,0,140.3,0,210.5,0
		c7.1,0,7.6-0.5,7.6-7.7c0-43.8,0-87.7,0-131.5c0-1.6,0-3.2,0-5.1C170.7,76.2,95.8,76.2,20.2,76.2z M246.1,68.3c0-4.9,0-9.4,0-13.9
		c0-8-0.3-8.3-8-8.3c-70,0-139.9,0-209.9,0c-1.5,0-3.2-0.3-4.4,0.2c-1.3,0.6-3.3,2-3.3,3.1c-0.3,6.2-0.2,12.5-0.2,18.8
		C95.8,68.3,170.5,68.3,246.1,68.3z"/>
	<path class="st0" d="M34.7,60.8c-2.1,0-4.2,0-6.7,0c0-2.1,0-4.3,0-6.7c2.2,0,4.2,0,6.7,0C34.7,56.2,34.7,58.4,34.7,60.8z"/>
	<path class="st0" d="M42.7,54c2.8,0,4.7,0,6.9,0c0,2.3,0,4.3,0,6.7c-2.3,0-4.5,0-6.9,0C42.7,58.4,42.7,56.3,42.7,54z"/>
	<path class="st0" d="M64.4,60.8c-2.6,0-4.6,0-7,0c0-2.3,0-4.3,0-6.7c2.3,0,4.5,0,7,0C64.4,56.3,64.4,58.4,64.4,60.8z"/>
</g>
<g>
	<path class="st0" d="M130.4,153.9c2.5,0,4.3,0,6.4,0c0,13.9,0,27.6,0,41.4c0.3,0.2,0.5,0.4,0.8,0.5c0.8-1,1.5-2,2.4-2.9
		c1.5-1.6,3.2-2,4.8-0.4c1.5,1.5,1.2,3.2-0.1,4.7c-2.6,3.1-5.2,6.2-7.8,9.3c-2.2,2.6-4.2,2.6-6.4,0c-2.4-2.8-4.8-5.6-7.2-8.5
		c-2.1-2.6-2.3-4.3-0.7-5.8c1.7-1.5,3.3-1.1,5.6,1.5c0.5,0.6,1,1.1,2.1,2.3C130.4,181.6,130.4,167.8,130.4,153.9z"/>
	<path class="st0" d="M135.9,100.2c0,2.2,0,3.7,0,5.1c0,9.1,0,18.1,0,27.2c0,4.4,0,4.4-4.5,4.3c-0.5,0-1-0.1-1.9-0.2
		c0-12,0-23.9,0-36.5c-1.4,1.6-2.2,2.6-3.1,3.5c-1.4,1.5-3,1.9-4.7,0.5c-1.5-1.3-1.5-3-0.3-4.5c2.9-3.6,5.9-7.2,9-10.7
		c1.3-1.4,3-1.4,4.2-0.1c3.3,3.7,6.5,7.4,9.5,11.3c1.1,1.3,0.8,3.2-0.7,3.9c-1.1,0.5-2.9,0.5-4-0.1
		C138.2,103.4,137.4,102,135.9,100.2z"/>
</g>
</svg>
