<?xml version="1.0" encoding="utf-8"?>
<!-- Generator: Adobe Illustrator 23.0.1, SVG Export Plug-In . SVG Version: 6.00 Build 0)  -->
<svg version="1.1" id="Layer_1" xmlns="http://www.w3.org/2000/svg" xmlns:xlink="http://www.w3.org/1999/xlink" x="0px" y="0px"
	 viewBox="0 0 144.3 93.7" style="enable-background:new 0 0 144.3 93.7;" xml:space="preserve">
<style type="text/css">
	.st0{fill:#00507D;}
</style>
<title>precio</title>
<g>
	<g id="Layer_2-2">
		<path class="st0" d="M65.2,3.9v84.3H46.6V28.8l-19.9,7.5V19L63.6,3.9H65.2z"/>
		<path class="st0" d="M75.3,46.8c0-24,7-42.9,31.3-42.9c24.2,0,30.9,18.9,30.9,42.9c0,23.8-6.7,42.6-30.9,42.6
			C82.2,89.4,75.3,70.6,75.3,46.8z M118.4,46.8c0-14.5-2.8-25.6-11.8-25.6c-9.1,0-12.3,11.2-12.3,25.6c0,14.3,3.2,25.2,12.3,25.2
			C115.6,72,118.4,61.1,118.4,46.8z"/>
		<path class="st0" d="M14.3,63.4v3.5l-2.7,0v-3.4c-4.2-0.5-6.9-3.2-6.9-7h5.5c0,1.7,1.1,2.6,3,2.6c1.7,0,2.6-0.9,2.6-2.1
			c0-0.7-0.4-1.6-2.2-2.2L11,53.9c-5.1-1.4-6-4.5-6-6.6c0-3.6,2.8-6.2,6.7-6.7v-3.5h2.7v3.5c3.9,0.5,6.5,3.2,6.4,7h-5.5
			c0-1.5-0.8-2.5-2.3-2.5s-2.4,0.9-2.4,2.1c0,0.5,0.1,1.4,2.1,2l2.3,0.7c3.2,1,6.5,2.7,6.5,6.7C21.4,60.9,18,63.1,14.3,63.4z"/>
	</g>
</g>
</svg>
